<svg preserveAspectRatio="xMidYMid meet" width="1738.74" height="230" overflow="visible" style="display: block;" viewBox="0 0 1738.74 230" fill="none" xmlns="http://www.w3.org/2000/svg">
<g id="Group 683">
<path id="Vector" d="M205.704 230H24.2965C21.0989 229.998 17.9332 229.365 14.9805 228.137C12.0279 226.91 9.34642 225.112 7.08958 222.846C4.83274 220.581 3.04487 217.893 1.82836 214.936C0.611843 211.979 -0.00943069 208.811 0.000108198 205.613V24.2964C0.000108198 17.8526 2.5599 11.6727 7.11636 7.11625C11.6728 2.55979 17.8527 0 24.2965 0L205.704 0C212.147 0 218.327 2.55979 222.884 7.11625C227.44 11.6727 230 17.8526 230 24.2964V205.613C230.017 208.813 229.4 211.984 228.187 214.944C226.973 217.905 225.185 220.596 222.927 222.862C220.668 225.129 217.984 226.927 215.028 228.152C212.072 229.377 208.903 230.005 205.704 230Z" fill="var(--fill-0, #0061FE)"/>
<path id="Vector_2" d="M122.934 41.251L101.991 53.4899C101.637 53.7118 101.343 54.0188 101.138 54.3829C100.932 54.747 100.82 55.1568 100.813 55.575V185.126C100.815 185.856 101.011 186.572 101.379 187.202C101.748 187.832 102.277 188.353 102.913 188.712C103.548 189.071 104.267 189.256 104.997 189.247C105.727 189.238 106.442 189.036 107.068 188.661L128.01 176.332C128.365 176.11 128.658 175.803 128.864 175.439C129.07 175.075 129.182 174.665 129.189 174.247V44.7867C129.187 44.0567 128.991 43.3404 128.622 42.7104C128.254 42.0805 127.725 41.5595 127.089 41.2003C126.454 40.8411 125.734 40.6566 125.004 40.6655C124.275 40.6744 123.56 40.8764 122.934 41.251Z" fill="var(--fill-0, white)"/>
<path id="Vector_3" d="M166.539 78.783H146.957C146.386 78.783 145.82 78.8956 145.292 79.1143C144.764 79.333 144.284 79.6535 143.88 80.0576C143.476 80.4617 143.155 80.9414 142.937 81.4693C142.718 81.9973 142.605 82.5632 142.605 83.1346V159.741C142.605 160.312 142.718 160.878 142.937 161.406C143.155 161.934 143.476 162.414 143.88 162.818C144.284 163.222 144.764 163.543 145.292 163.761C145.82 163.98 146.386 164.092 146.957 164.092H148.045C148.495 164.1 148.936 163.974 149.314 163.73L169.712 151.672C170.067 151.45 170.36 151.143 170.566 150.779C170.772 150.415 170.884 150.005 170.891 149.587V83.044C170.872 81.9041 170.404 80.8177 169.59 80.0201C168.775 79.2226 167.679 78.7781 166.539 78.783Z" fill="var(--fill-0, white)"/>
<path id="Vector_4" d="M63.1891 151.128H82.7713C83.9254 151.128 85.0323 150.669 85.8484 149.853C86.6644 149.037 87.1229 147.93 87.1229 146.776V70.1698C87.1229 69.0157 86.6644 67.9089 85.8484 67.0928C85.0323 66.2767 83.9254 65.8182 82.7713 65.8182H81.7741C81.3244 65.8105 80.8826 65.9367 80.5049 66.1809L59.9254 78.2384C59.5709 78.4603 59.2774 78.7673 59.0715 79.1314C58.8657 79.4956 58.7541 79.9053 58.7469 80.3235V146.685C58.7493 147.863 59.2181 148.991 60.0506 149.824C60.8832 150.656 62.0117 151.125 63.1891 151.128Z" fill="var(--fill-0, white)"/>
<path id="Vector_5" d="M424.826 155.752H361.546L349.489 184.944H317.214L377.955 48.6847H409.142L470.064 184.944H436.974L424.826 155.752ZM414.853 131.818L393.277 79.5991L371.7 131.728H414.853V131.818Z" fill="var(--fill-0, #0061FE)"/>
<path id="Vector_6" d="M588.735 40.5246V184.943H559.725V172.886C552.2 181.951 541.321 186.484 526.997 186.484C517.66 186.631 508.444 184.351 500.253 179.866C492.33 175.495 485.82 168.953 481.487 161.009C476.954 152.85 474.687 143.331 474.687 132.543C474.687 121.754 476.954 112.326 481.487 104.076C485.794 96.1132 492.311 89.5648 500.253 85.2191C508.444 80.7345 517.66 78.454 526.997 78.601C540.324 78.601 550.84 82.862 558.365 91.2932V40.5246H588.735ZM551.294 153.666C556.37 148.408 558.909 141.337 558.909 132.543C558.909 123.749 556.37 116.678 551.294 111.419C548.848 108.847 545.89 106.815 542.611 105.457C539.332 104.098 535.804 103.443 532.255 103.532C524.459 103.532 518.022 106.161 512.945 111.419C507.868 116.678 505.33 123.749 505.33 132.543C505.33 141.337 507.868 148.408 512.945 153.666C518.022 158.924 524.459 161.553 532.255 161.553C539.871 161.553 546.307 158.924 551.294 153.666Z" fill="var(--fill-0, #0061FE)"/>
<path id="Vector_7" d="M720.734 80.2329L676.583 184.943H645.215L601.246 80.2329H632.614L661.625 151.49L691.632 80.2329H720.734Z" fill="var(--fill-0, #0061FE)"/>
<path id="Vector_8" d="M750.379 179.595C741.861 175.232 734.733 168.575 729.799 160.375C724.811 151.957 722.239 142.327 722.365 132.543C722.365 122.117 724.813 112.87 729.799 104.711C734.735 96.5126 741.862 89.856 750.379 85.4914C759.172 80.8679 769.054 78.6014 780.024 78.6014C790.994 78.6014 800.875 80.8679 809.578 85.4914C818.044 89.8607 825.112 96.5202 829.977 104.711C834.965 113.129 837.537 122.759 837.411 132.543C837.411 142.969 834.963 152.216 829.977 160.375C825.061 168.525 818.006 175.173 809.578 179.595C800.875 184.218 790.994 186.485 780.024 186.485C769.054 186.485 759.172 184.218 750.379 179.595ZM799.243 153.666C804.23 148.408 806.768 141.337 806.768 132.543C806.768 123.749 804.23 116.678 799.243 111.42C794.257 106.162 787.82 103.532 780.024 103.532C772.227 103.532 765.79 106.162 760.714 111.42C755.637 116.678 753.098 123.749 753.098 132.543C753.098 141.337 755.637 148.408 760.714 153.666C765.79 158.925 772.227 161.554 780.024 161.554C787.82 161.554 794.257 158.925 799.243 153.666Z" fill="var(--fill-0, #0061FE)"/>
<path id="Vector_9" d="M878.298 179.595C869.685 175.266 862.461 168.607 857.446 160.375C852.389 151.982 849.782 142.341 849.922 132.543C849.733 122.823 852.297 113.247 857.318 104.921C862.339 96.5959 869.612 89.86 878.298 85.4914C887.182 80.8679 897.245 78.6014 908.396 78.6014C919.547 78.6014 929.066 80.8679 937.316 85.4914C945.366 89.882 951.717 96.8388 955.357 105.255L931.786 117.947C926.347 108.337 918.459 103.532 908.215 103.532C900.328 103.532 893.71 106.162 888.542 111.329C883.375 116.497 880.745 123.568 880.745 132.543C880.745 141.518 883.375 148.59 888.542 153.757C893.71 158.925 900.328 161.554 908.215 161.554C918.641 161.554 926.437 156.749 931.786 147.139L955.357 160.013C951.601 168.284 945.273 175.12 937.316 179.504C929.066 184.218 919.457 186.485 908.396 186.485C897.155 186.485 887.182 184.218 878.298 179.595Z" fill="var(--fill-0, #0061FE)"/>
<path id="Vector_10" d="M1077.75 80.2323V184.943H1048.73V172.885C1041.21 181.951 1030.33 186.484 1016.01 186.484C1006.67 186.631 997.454 184.35 989.263 179.866C981.341 175.494 974.83 168.952 970.497 161.009C965.964 152.85 963.698 143.33 963.698 132.542C963.698 121.754 965.964 112.325 970.497 104.075C974.804 96.1126 981.321 89.5642 989.263 85.2185C997.454 80.7339 1006.67 78.4534 1016.01 78.6004C1029.33 78.6004 1039.85 82.8614 1047.38 91.2926V80.2323H1077.75ZM1040.3 153.665C1045.38 148.407 1047.92 141.336 1047.92 132.542C1047.92 123.748 1045.38 116.677 1040.3 111.419C1037.86 108.846 1034.9 106.815 1031.62 105.456C1028.34 104.098 1024.81 103.442 1021.27 103.531C1013.47 103.531 1007.03 106.161 1001.96 111.419C996.878 116.677 994.34 123.748 994.34 132.542C994.34 141.336 996.878 148.407 1001.96 153.665C1007.03 158.924 1013.47 161.553 1021.27 161.553C1028.88 161.553 1035.32 158.924 1040.3 153.665Z" fill="var(--fill-0, #0061FE)"/>
<path id="Vector_11" d="M1168.86 179.866C1165.56 182.221 1161.83 183.914 1157.89 184.852C1153.47 185.946 1148.93 186.494 1144.38 186.484C1131.78 186.484 1122.08 183.311 1115.37 176.965C1108.66 170.618 1105.21 161.281 1105.21 148.951V57.0237H1135.58V82.4987H1161.51V105.889H1135.58V148.498C1135.58 152.94 1136.67 156.295 1138.85 158.742C1141.02 161.19 1144.2 162.369 1148.37 162.369C1152.82 162.456 1157.18 161.087 1160.79 158.47L1168.86 179.866Z" fill="var(--fill-0, #0061FE)"/>
<path id="Vector_12" d="M1249.9 159.741C1254.32 158.012 1258.34 155.389 1261.69 152.035L1277.83 169.532C1267.95 180.864 1253.53 186.515 1234.58 186.485C1222.8 186.485 1212.28 184.218 1203.22 179.595C1194.15 174.971 1187.08 168.625 1182.18 160.375C1177.19 151.957 1174.62 142.327 1174.75 132.543C1174.62 122.799 1177.16 113.204 1182.09 104.802C1186.86 96.642 1193.8 89.9593 1202.13 85.4917C1210.65 80.8681 1220.17 78.6016 1230.87 78.6016C1240.34 78.4738 1249.71 80.6517 1258.15 84.9477C1266.25 89.1297 1273.02 95.4676 1277.74 103.261C1282.63 111.239 1285.08 120.667 1285.08 131.546L1207.57 146.505C1209.6 151.481 1213.28 155.609 1217.99 158.2C1222.71 160.829 1228.51 162.098 1235.4 162.098C1240.34 162.254 1245.27 161.453 1249.9 159.741ZM1212.19 109.063C1207.39 113.958 1204.85 120.848 1204.58 129.461L1255.62 119.489C1254.31 114.239 1251.2 109.618 1246.82 106.434C1242.18 103.098 1236.58 101.378 1230.87 101.538C1223.25 101.629 1217 104.077 1212.19 109.063Z" fill="var(--fill-0, #0061FE)"/>
<path id="Vector_13" d="M1315.18 183.312C1306.84 181.136 1300.22 178.507 1295.33 175.243L1305.48 153.395C1310.75 156.638 1316.46 159.11 1322.43 160.738C1328.77 162.584 1335.33 163.53 1341.92 163.548C1354.8 163.548 1361.24 160.375 1361.24 154.029C1361.24 151.038 1359.51 148.862 1355.98 147.593C1352.44 146.323 1347.09 145.235 1339.84 144.329C1332.68 143.328 1325.59 141.844 1318.63 139.887C1313.09 138.209 1308.09 135.115 1304.12 130.911C1300.04 126.651 1297.96 120.486 1297.96 112.599C1297.86 106.265 1299.87 100.079 1303.67 95.0108C1307.47 89.8433 1313.1 85.8543 1320.44 83.0439C1327.78 80.2335 1336.39 78.783 1346.46 78.783C1353.9 78.7854 1361.32 79.6063 1368.58 81.2308C1374.96 82.5178 1381.11 84.7806 1386.8 87.9395L1376.65 109.516C1367.43 104.341 1357.03 101.654 1346.46 101.72C1339.93 101.72 1335.13 102.626 1331.86 104.439C1328.6 106.252 1326.97 108.61 1326.97 111.42C1326.97 114.684 1328.69 116.95 1332.22 118.219C1335.76 119.489 1341.29 120.758 1349 121.936C1356.08 123.082 1363.1 124.595 1370.03 126.469C1375.49 128.092 1380.41 131.162 1384.26 135.354C1388.25 139.615 1390.34 145.598 1390.34 153.304C1390.43 159.568 1388.38 165.676 1384.53 170.62C1380.64 175.697 1374.92 179.595 1367.49 182.405C1360.06 185.216 1351.17 186.576 1340.93 186.576C1332.25 186.507 1323.6 185.411 1315.18 183.312Z" fill="var(--fill-0, #0061FE)"/>
<path id="Vector_14" d="M1501.39 54.7588C1510.28 58.7477 1517.17 64.4592 1521.97 71.8932C1526.78 79.3272 1529.13 88.0303 1529.13 98.1841C1529.13 108.156 1526.69 116.95 1521.97 124.384C1517.26 131.818 1510.28 137.53 1501.39 141.519C1492.51 145.508 1481.99 147.412 1469.93 147.412H1442.46V184.944H1410.92V48.6847H1469.93C1482.08 48.6847 1492.51 50.6791 1501.39 54.7588ZM1489.88 115.59C1494.77 111.511 1497.31 105.709 1497.31 98.1841C1497.31 90.6594 1494.86 84.676 1489.88 80.5964C1484.89 76.5167 1477.73 74.4316 1468.3 74.4316H1442.65V121.755H1468.3C1477.73 121.665 1484.89 119.67 1489.88 115.59Z" fill="var(--fill-0, #0061FE)"/>
<path id="Vector_15" d="M1593.14 82.5892C1599.3 79.9601 1606.37 78.6909 1614.44 78.6909V106.704C1611.09 106.432 1608.82 106.342 1607.64 106.342C1598.94 106.342 1592.14 108.789 1587.24 113.685C1582.35 118.581 1579.81 125.833 1579.81 135.624V185.033H1549.44V80.2321H1578.45V94.0122C1582.15 88.8768 1587.25 84.9121 1593.14 82.5892Z" fill="var(--fill-0, #0061FE)"/>
<path id="Vector_16" d="M1651.7 179.595C1643.19 175.232 1636.06 168.575 1631.12 160.375C1626.14 151.957 1623.56 142.327 1623.69 132.543C1623.69 122.117 1626.14 112.87 1631.12 104.711C1636.06 96.5126 1643.19 89.856 1651.7 85.4914C1660.5 80.8679 1670.38 78.6014 1681.35 78.6014C1692.32 78.6014 1702.2 80.8679 1710.9 85.4914C1719.37 89.8607 1726.44 96.5202 1731.3 104.711C1736.29 113.129 1738.86 122.759 1738.73 132.543C1738.73 142.969 1736.29 152.216 1731.3 160.375C1726.39 168.525 1719.33 175.173 1710.9 179.595C1702.2 184.218 1692.32 186.485 1681.35 186.485C1670.38 186.485 1660.5 184.218 1651.7 179.595ZM1700.57 153.666C1705.55 148.408 1708.09 141.337 1708.09 132.543C1708.09 123.749 1705.55 116.678 1700.57 111.42C1695.58 106.162 1689.14 103.532 1681.35 103.532C1673.55 103.532 1667.11 106.162 1662.04 111.42C1656.96 116.678 1654.42 123.749 1654.42 132.543C1654.42 141.337 1656.96 148.408 1662.04 153.666C1667.11 158.925 1673.55 161.554 1681.35 161.554C1689.14 161.554 1695.58 158.925 1700.57 153.666Z" fill="var(--fill-0, #0061FE)"/>
</g>
</svg>
