<svg xmlns="http://www.w3.org/2000/svg" viewBox="0 0 24 24" fill="none">
  <path d="M12 2C8.13 2 5 5.13 5 9c0 5.25 7 13 7 13s7-7.75 7-13c0-3.87-3.13-7-7-7z" fill="#4285F4"/>
  <circle cx="12" cy="9" r="3.5" fill="#fff"/>
  <path d="M12 6.5c-1.38 0-2.5 1.12-2.5 2.5s1.12 2.5 2.5 2.5 2.5-1.12 2.5-2.5-1.12-2.5-2.5-2.5z" fill="#EA4335"/>
  <path d="M12 6.5v2.5h2.5c0-1.38-1.12-2.5-2.5-2.5z" fill="#FBBC05"/>
  <path d="M12 9h2.5c0 1.38-1.12 2.5-2.5 2.5V9z" fill="#34A853"/>
  <path d="M9.5 9c0-1.38 1.12-2.5 2.5-2.5V9H9.5z" fill="#4285F4"/>
  <path d="M9.5 9h2.5v2.5c-1.38 0-2.5-1.12-2.5-2.5z" fill="#4285F4"/>
</svg>
