<svg width="20" height="20" viewBox="0 0 20 20" fill="none" xmlns="http://www.w3.org/2000/svg">
<path d="M17.7778 5.55556C17.7778 3.71461 16.2854 2.22222 14.4444 2.22222H5.55556C3.71461 2.22222 2.22222 3.71461 2.22222 5.55556V14.4444C2.22222 16.2854 3.71461 17.7778 5.55556 17.7778H14.4444C16.2854 17.7778 17.7778 16.2854 17.7778 14.4444V5.55556ZM7.88846 5.82031C8.75961 5.36829 9.75182 5.20117 10.7227 5.34505C11.7131 5.49192 12.6297 5.95434 13.3377 6.66233C14.0457 7.37031 14.5081 8.28693 14.6549 9.27734C14.7988 10.2482 14.6317 11.2404 14.1797 12.1115C13.7277 12.9821 13.0136 13.6886 12.1376 14.1298C11.2608 14.5711 10.266 14.7241 9.29688 14.5681C8.32789 14.4122 7.43228 13.9557 6.73828 13.2617C6.04428 12.5677 5.58785 11.6721 5.43186 10.7031C5.27592 9.73402 5.42892 8.73919 5.87023 7.86241C6.3114 6.98637 7.01793 6.27227 7.88846 5.82031ZM10.3971 7.5434C9.88873 7.46801 9.36901 7.5542 8.91276 7.7908C8.45642 8.02758 8.08707 8.40364 7.8559 8.86285C7.6248 9.322 7.54428 9.84188 7.62587 10.3494C7.70755 10.857 7.9459 11.327 8.30946 11.6905C8.67303 12.0541 9.14298 12.2924 9.65061 12.3741C10.1581 12.4557 10.678 12.3752 11.1372 12.1441C11.5964 11.9129 11.9724 11.5436 12.2092 11.0872C12.4458 10.631 12.532 10.1113 12.4566 9.60287C12.3797 9.08411 12.1373 8.60433 11.7665 8.23351C11.3957 7.86268 10.9159 7.62035 10.3971 7.5434ZM14.898 3.99957L15.1215 4.02344C15.6277 4.12702 16.0089 4.57393 16.0091 5.11068C16.0091 5.64771 15.628 6.09658 15.1215 6.20009L14.898 6.22179H14.8893C14.2757 6.22179 13.7782 5.72433 13.7782 5.11068C13.7784 4.49723 14.2758 3.99957 14.8893 3.99957H14.898ZM20 14.4444C20 17.5127 17.5127 20 14.4444 20H5.55556C2.48731 20 0 17.5127 0 14.4444V5.55556C0 2.48731 2.48731 0 5.55556 0H14.4444C17.5127 0 20 2.48731 20 5.55556V14.4444Z" fill="url(#paint0_linear_31123_2486)"/>
<defs>
<linearGradient id="paint0_linear_31123_2486" x1="18.125" y1="0.625001" x2="1.875" y2="19.375" gradientUnits="userSpaceOnUse">
<stop stop-color="#7D3BC5"/>
<stop offset="0.52" stop-color="#DC237C"/>
<stop offset="1" stop-color="#FD7F38"/>
</linearGradient>
</defs>
</svg>
