<svg preserveAspectRatio="none" overflow="visible" style="display: block;" width="41" height="19.6227" viewBox="0 0 41 19.6227" fill="none" xmlns="http://www.w3.org/2000/svg">
<g id="Group 1387">
<path id="Vector" d="M21.0417 6.2143C21.0417 6.20683 21.0417 6.1997 21.0417 6.19223C21.0417 6.18137 21.0417 6.17016 21.0414 6.1593C21.041 6.14029 21.0404 6.12093 21.0393 6.10192C21.039 6.09241 21.0383 6.08291 21.0376 6.0734C21.037 6.06389 21.0366 6.05473 21.0356 6.04556C21.0356 6.04284 21.0353 6.04013 21.0349 6.03741C21.0339 6.02213 21.0325 6.00719 21.0309 5.99191C21.0309 5.99123 21.0309 5.99022 21.0309 5.98954C20.9178 4.83991 19.9488 3.94186 18.7696 3.94186C18.7075 3.94186 18.6464 3.94424 18.5856 3.94933C18.5822 3.94933 18.5791 3.95001 18.5757 3.95035C18.5452 3.95273 18.515 3.95612 18.4848 3.95986C18.48 3.96054 18.4752 3.96121 18.4702 3.96155C18.3656 3.97514 18.263 3.99619 18.1636 4.02369C18.1615 4.02437 18.1595 4.02471 18.1575 4.02538C18.1228 4.03489 18.0889 4.04542 18.0553 4.05662C18.0536 4.05696 18.0522 4.05764 18.0505 4.05832C17.9035 4.10721 17.7629 4.17104 17.6308 4.24777C17.6207 4.25355 17.6108 4.25966 17.6006 4.26543C17.2621 4.4688 16.9807 4.75808 16.7871 5.10304C16.763 5.14582 16.7399 5.18962 16.7189 5.23409L11.9754 14.3632V6.2126C11.9754 5.52031 11.6657 4.9 11.1775 4.48306C10.7803 4.14388 10.2645 3.93881 9.70125 3.93881C9.09316 3.93881 8.54109 4.17749 8.13298 4.56591C7.99581 4.69697 7.8746 4.84466 7.77342 5.00593V5.00661C7.70823 5.10983 7.65187 5.21848 7.604 5.33188L2.86661 14.3629V8.88331H0V17.182C0 18.4352 1.01552 19.4507 2.26871 19.4507C2.51961 19.4507 2.76102 19.4099 2.98646 19.3346C2.99529 19.3318 3.00378 19.3288 3.0126 19.3257C3.48896 19.1604 3.89299 18.8412 4.16563 18.427C4.24949 18.2983 4.32113 18.1618 4.37817 18.0175V18.0169L9.04358 8.87618L9.05207 17.0468C9.04902 17.0934 9.04766 17.1402 9.04766 17.1874C9.04766 17.2346 9.04902 17.2815 9.05207 17.3283C9.09621 18.0491 9.4758 18.6793 10.0367 19.0643C10.4024 19.3152 10.8451 19.4622 11.3221 19.4622C11.938 19.4622 12.4972 19.2171 12.9067 18.8195L12.9098 18.8164C12.941 18.7859 12.9715 18.7543 13.0011 18.7217C13.0839 18.6311 13.1593 18.5336 13.2269 18.4304C13.3087 18.3051 13.3786 18.171 13.435 18.0301L18.1914 8.87618L18.1748 19.4935H21.0414V6.21804V6.2143H21.0417Z" fill="url(#paint0_linear_0_64)"/>
<path id="Vector_2" d="M41 8.88391V19.4655H38.0696V18.246C37.309 19.164 36.2076 19.6227 34.7653 19.6227C33.7688 19.6227 32.8674 19.4 32.061 18.9539C31.2546 18.5084 30.6217 17.8721 30.163 17.0461C29.704 16.22 29.4748 15.2629 29.4748 14.1744C29.4748 13.0859 29.704 12.1287 30.163 11.3027C30.6217 10.4766 31.2546 9.84069 32.061 9.39489C32.8674 8.94943 33.7688 8.72603 34.7653 8.72603C36.1156 8.72603 37.1712 9.15213 37.9317 10.0043V8.88323H41V8.88391ZM37.2238 16.3086C37.7351 15.7776 37.9908 15.0663 37.9908 14.1747C37.9908 13.2831 37.7351 12.5718 37.2238 12.0408C36.7125 11.5098 36.0698 11.2443 35.2963 11.2443C34.5229 11.2443 33.8605 11.5098 33.3491 12.0408C32.8378 12.5718 32.5822 13.2831 32.5822 14.1747C32.5822 15.0663 32.8378 15.7776 33.3491 16.3086C33.8605 16.8397 34.5096 17.1052 35.2963 17.1052C36.083 17.1052 36.7125 16.8397 37.2238 16.3086Z" fill="url(#paint1_linear_0_64)"/>
<g id="Group 1">
<path id="Vector_3" d="M25.6149 0.000165784C25.7643 0.00320314 25.9095 0.0516687 26.031 0.139457L26.043 0.148343L26.0549 0.157528C26.1767 0.253347 26.2654 0.385532 26.3076 0.535581C26.3087 0.539419 26.3098 0.54326 26.3108 0.547119L26.8099 2.47369C26.8121 2.48202 26.8166 2.48998 26.8232 2.4966C26.8299 2.50324 26.8385 2.50829 26.8484 2.51083L28.7854 3.00732L28.7948 3.0098C28.9445 3.05087 29.0776 3.1383 29.1747 3.2599L29.184 3.27177L29.193 3.28384C29.2851 3.4094 29.3352 3.56133 29.3352 3.7178C29.3352 3.8793 29.2819 4.03599 29.184 4.16382C29.0862 4.29161 28.9493 4.3834 28.7948 4.42579C28.7917 4.42665 28.7885 4.42748 28.7854 4.42828L26.8484 4.92474C26.8385 4.92727 26.8299 4.93235 26.8232 4.93899C26.8166 4.94559 26.8121 4.9535 26.8099 4.9618L26.3104 6.88854C26.3094 6.89238 26.3084 6.8962 26.3073 6.90001C26.2637 7.0549 26.1706 7.19079 26.0427 7.28725C25.9149 7.38367 25.7593 7.4356 25.5997 7.4356C25.44 7.43559 25.2844 7.38367 25.1566 7.28725C25.0288 7.19079 24.9356 7.0549 24.892 6.90001C24.8909 6.89618 24.8899 6.89234 24.8889 6.88848L24.3897 4.9619L24.3877 4.95574C24.3852 4.94967 24.3814 4.94396 24.3764 4.93899C24.3698 4.93235 24.3611 4.9273 24.3512 4.92477L22.4142 4.42795C22.4097 4.4268 22.4052 4.42559 22.4008 4.42433C22.2475 4.38106 22.1119 4.28905 22.0151 4.16163C21.9213 4.03815 21.869 3.88804 21.8658 3.73282L21.8656 3.7178L21.8658 3.70274C21.869 3.54753 21.9213 3.39744 22.0151 3.27396L22.0243 3.26212C22.1204 3.14085 22.2523 3.05319 22.4008 3.01126L22.4141 3.00768L24.3512 2.51053L24.3513 2.51049C24.3612 2.50796 24.3699 2.50294 24.3765 2.4963C24.3832 2.48969 24.3876 2.48172 24.3898 2.47339L24.8892 0.547053L24.8923 0.535581C24.9359 0.380702 25.0291 0.244816 25.1569 0.148343L25.169 0.139457C25.2945 0.0487367 25.4453 0 25.6 0L25.6149 0.000165784Z" fill="url(#paint2_linear_0_64)"/>
<path id="Vector_4" d="M24.0641 8.90409H27.1323V19.4857H24.0641V8.90409Z" fill="url(#paint3_linear_0_64)"/>
</g>
</g>
<defs>
<linearGradient id="paint0_linear_0_64" x1="-1.75208e-06" y1="20.3576" x2="14.2323" y2="-2.1041" gradientUnits="userSpaceOnUse">
<stop stop-color="#0061FE"/>
<stop offset="1" stop-color="#00AAFF"/>
</linearGradient>
<linearGradient id="paint1_linear_0_64" x1="29.4748" y1="20.2281" x2="40.262" y2="6.91722" gradientUnits="userSpaceOnUse">
<stop stop-color="#0061FE"/>
<stop offset="1" stop-color="#00AAFF"/>
</linearGradient>
<linearGradient id="paint2_linear_0_64" x1="21.8656" y1="7.84868" x2="29.296" y2="-0.85963" gradientUnits="userSpaceOnUse">
<stop stop-color="#0061FE"/>
<stop offset="1" stop-color="#00AAFF"/>
</linearGradient>
<linearGradient id="paint3_linear_0_64" x1="24.0641" y1="20.0736" x2="30.5647" y2="17.8745" gradientUnits="userSpaceOnUse">
<stop stop-color="#0061FE"/>
<stop offset="1" stop-color="#00AAFF"/>
</linearGradient>
</defs>
</svg>
