<svg xmlns="http://www.w3.org/2000/svg" viewBox="0 0 24 24" fill="none">
  <path d="M3.609 1.814L13.792 12 3.61 22.186a.996.996 0 0 1-.61-.92V2.734a1 1 0 0 1 .609-.92z" fill="#00C7F2"/>
  <path d="M17.556 8.236L5.103.647a.997.997 0 0 0-.494-.133L13.792 12l3.764-3.764z" fill="#00F076"/>
  <path d="M21.004 10.258l-3.448-2.022L13.792 12l3.764 3.764 3.448-2.022a1.998 1.998 0 0 0 0-3.484z" fill="#FFBB00"/>
  <path d="M3.609 22.186L13.792 12l-3.764 3.764-4.92 4.922a.996.996 0 0 0 .501-.5z" fill="#FF4141"/>
  <path d="M17.556 15.764L13.792 12l3.764-3.764 3.448 2.022a1.998 1.998 0 0 1 0 3.484l-3.448 2.022z" fill="#FFBB00"/>
</svg>
