<svg  viewBox="5 8 20 24" width="20" height="20" fill="none" xmlns="http://www.w3.org/2000/svg">
<g id="Frame 534">
<g id="Vector">
<path d="M18.3333 17.0833C19.6594 17.0833 20.9312 17.6101 21.8689 18.5478C22.8065 19.4855 23.3333 20.7573 23.3333 22.0833V27.9167H20V22.0833C20 21.6413 19.8244 21.2174 19.5118 20.9048C19.1993 20.5923 18.7754 20.4167 18.3333 20.4167C17.8913 20.4167 17.4674 20.5923 17.1548 20.9048C16.8423 21.2174 16.6667 21.6413 16.6667 22.0833V27.9167H13.3333V22.0833C13.3333 20.7573 13.8601 19.4855 14.7978 18.5478C15.7355 17.6101 17.0073 17.0833 18.3333 17.0833Z" stroke="#222222" stroke-width="1.66667" stroke-linecap="round" stroke-linejoin="round"/>
<path d="M10 17.9167H6.66667V27.9167H10V17.9167Z" stroke="#222222" stroke-width="1.66667" stroke-linecap="round" stroke-linejoin="round"/>
<path d="M8.33333 15.4167C9.25381 15.4167 10 14.6705 10 13.75C10 12.8295 9.25381 12.0833 8.33333 12.0833C7.41286 12.0833 6.66667 12.8295 6.66667 13.75C6.66667 14.6705 7.41286 15.4167 8.33333 15.4167Z" stroke="#222222" stroke-width="1.66667" stroke-linecap="round" stroke-linejoin="round"/>
</g>
</g>
</svg>
