<svg  viewBox="5 8 20 24" width="20" height="20" fill="none" xmlns="http://www.w3.org/2000/svg">
<g id="Frame 533">
<g id="Vector">
<path d="M7.08333 24.1666C6.50119 21.4193 6.50119 18.5806 7.08333 15.8333C7.15982 15.5543 7.30761 15.3 7.51217 15.0954C7.71673 14.8909 7.97101 14.7431 8.25 14.6666C12.7195 13.9262 17.2805 13.9262 21.75 14.6666C22.029 14.7431 22.2833 14.8909 22.4878 15.0954C22.6924 15.3 22.8402 15.5543 22.9167 15.8333C23.4988 18.5806 23.4988 21.4193 22.9167 24.1666C22.8402 24.4456 22.6924 24.6999 22.4878 24.9044C22.2833 25.109 22.029 25.2568 21.75 25.3333C17.2805 26.0739 12.7195 26.0739 8.25 25.3333C7.97101 25.2568 7.71673 25.109 7.51217 24.9044C7.30761 24.6999 7.15982 24.4456 7.08333 24.1666Z" stroke="#222222" stroke-width="1.66667" stroke-linecap="round" stroke-linejoin="round"/>
<path d="M13.3333 22.4999L17.5 19.9999L13.3333 17.4999V22.4999Z" stroke="#222222" stroke-width="1.66667" stroke-linecap="round" stroke-linejoin="round"/>
</g>
</g>
</svg>
