<svg  width="20" height="20" viewBox="0 0 20.0501 22.6657" fill="none" xmlns="http://www.w3.org/2000/svg">
<g id="1562Ok.tif">
<path id="Vector" d="M8.3889 12.1375C8.16628 12.1142 7.95531 12.0806 7.74174 12.0728C5.86241 12.0016 4.42443 13.4254 4.53833 15.2931C4.60822 16.4295 5.16736 17.2798 6.22093 17.7704C7.33274 18.2881 8.40055 18.1936 9.37775 17.4533C10.1802 16.8449 10.5595 16.0179 10.5569 14.9941C10.5482 10.4623 10.5482 5.93219 10.5569 1.40382V1H14.0515C14.3958 3.97691 16.0862 5.59998 19.0501 5.9818V9.42466C17.2762 9.44298 15.5428 8.89479 14.102 7.85984C14.0942 8.01387 14.0839 8.12518 14.0839 8.23778C14.0839 10.4976 14.102 12.7588 14.0839 15.0187C14.0541 17.7691 12.7805 19.796 10.3304 21.0062C8.58822 21.8669 6.74901 21.8785 4.96804 21.0799C2.57615 20.0044 1.23913 18.1173 1.02298 15.5183C0.870251 13.6842 1.48505 12.0443 2.71853 10.6685C4.15909 9.06096 5.99443 8.42028 8.11839 8.53936C8.29571 8.54842 8.42385 8.57172 8.42255 8.80599C8.4122 9.86085 8.42255 10.9157 8.41608 11.9706C8.41213 12.0269 8.40303 12.0828 8.3889 12.1375Z" stroke="#222222" stroke-width="2" stroke-linejoin="round"/>
</g>
</svg>
