<svg  viewBox="5 8 20 24" width="20" height="20" fill="none" xmlns="http://www.w3.org/2000/svg">
<g id="Frame 527">
<path id="Vector" d="M19.5833 15.4167H19.5917M10.8333 11.6667H19.1667C21.4679 11.6667 23.3333 13.5321 23.3333 15.8333V24.1667C23.3333 26.4679 21.4679 28.3333 19.1667 28.3333H10.8333C8.53215 28.3333 6.66667 26.4679 6.66667 24.1667V15.8333C6.66667 13.5321 8.53215 11.6667 10.8333 11.6667ZM18.3333 19.475C18.4362 20.1685 18.3177 20.8768 17.9948 21.4992C17.6719 22.1215 17.161 22.6262 16.5347 22.9414C15.9084 23.2566 15.1987 23.3663 14.5065 23.2549C13.8143 23.1436 13.1748 22.8167 12.679 22.321C12.1833 21.8252 11.8564 21.1857 11.7451 20.4935C11.6337 19.8013 11.7434 19.0916 12.0586 18.4653C12.3738 17.839 12.8785 17.3281 13.5008 17.0052C14.1232 16.6823 14.8315 16.5638 15.525 16.6667C16.2324 16.7716 16.8874 17.1012 17.3931 17.6069C17.8988 18.1126 18.2284 18.7676 18.3333 19.475Z" stroke="#222222" stroke-width="1.66667" stroke-linecap="round" stroke-linejoin="round"/>
</g>
</svg>
